<svg xmlns="http://www.w3.org/2000/svg" viewBox="0 0 1042.05 259.44"><defs><style>.a,.c{fill:#c4090b;}.b{fill:#08080b;}.c{font-size:125.37px;font-family:ToxigenesisRg-Bold, Toxigenesis;font-weight:700;letter-spacing:-0.04em;}.d{fill:#000;}</style></defs><path class="a" d="M676.51,113.89C509.62-6,301.41,36.06,205.23,100.64c38.87,11.09,79.82,22.71,120.71,34.51a21.84,21.84,0,0,1,12.74,9.15c-27.59,0-55.19.08-82.79,0-49.63-.16-99.37,1.5-148.86-1.24-39.64-2.2-73.65-20.19-100.27-50.34a34.32,34.32,0,0,1-4.92-8.34C.51,81.52-.32,78.43.12,79.66c35.28,22.81,82.73,29,120.28,18.81,10.76-2.93,17.67-8,28.65-11.47,74.4-23.79,147.6-52,223.13-71.36C503.51-17.93,601.79.9,702.28,88.23c38.28-2.92,77.92-8.43,117.55-8.34,50.54.12,101.94,0,151.37,8.85,47.45,8.5,71.29,47.78,70.85,95.77C934.26,95.9,807.57,103.54,676.51,113.89Z"/><path class="b" d="M489,129.3c-44.84-43.05-91.53-53-217.74-47.6,79.31-52.88,272.29-48.92,387.56,35.22Z"/><text class="c" transform="matrix(0.95, 0, -0.57, 0.82, 84.19, 226.48)">RENT<tspan class="d" x="394.4" y="0" xml:space="preserve"> CARS</tspan></text></svg>